HIERARCHY
ROOT SpineBase
{
  OFFSET 0.000000 0.000000 0.000000
  CHANNELS 6 Xposition Yposition Zposition Zrotation Xrotation Yrotation
  JOINT SpineMid
  {
    OFFSET 0.000000 19.649183 0.000000
    CHANNELS 3 Zrotation Xrotation Yrotation
    JOINT SpineShoulder
    {
      OFFSET 0.146823 14.436432 -0.103328
      CHANNELS 3 Zrotation Xrotation Yrotation
      JOINT Neck
      {
        OFFSET 0.131277 4.852810 -0.172814
        CHANNELS 3 Zrotation Xrotation Yrotation
        JOINT Head
        {
          OFFSET -0.051825 -2.344845 -5.792154
          CHANNELS 3 Zrotation Xrotation Yrotation
          End Site
          {
            OFFSET 0 0 0
          }
        }
      }
      JOINT ShoulderLeft
      {
        OFFSET -11.996534 -0.918981 -5.027560
        CHANNELS 3 Zrotation Xrotation Yrotation
        JOINT ElbowLeft
        {
          OFFSET 2.582546 17.931623 2.373324
          CHANNELS 3 Zrotation Xrotation Yrotation
          JOINT WristLeft
          {
            OFFSET 16.271109 3.483227 -4.008501
            CHANNELS 3 Zrotation Xrotation Yrotation
            JOINT HandLeft
            {
              OFFSET -2.404304 3.183822 -2.078915
              CHANNELS 3 Zrotation Xrotation Yrotation
              JOINT HandTipLeft
              {
                OFFSET 0.725667 3.362596 0.501604
                CHANNELS 3 Zrotation Xrotation Yrotation
                End Site
                {
                  OFFSET 0 0 0
                }
              }
              JOINT ThumbLeft
              {
                OFFSET -0.232508 0.098126 -2.604043
                CHANNELS 3 Zrotation Xrotation Yrotation
                End Site
                {
                  OFFSET 0 0 0
                }
              }
            }
          }
        }
      }
      JOINT ShoulderRight
      {
        OFFSET 8.908002 10.163025 -1.973634
        CHANNELS 3 Zrotation Xrotation Yrotation
        JOINT ElbowRight
        {
          OFFSET 8.380727 -28.204787 -4.568246
          CHANNELS 3 Zrotation Xrotation Yrotation
          JOINT WristRight
          {
            OFFSET 9.493682 -25.729372 -10.801230
            CHANNELS 3 Zrotation Xrotation Yrotation
            JOINT HandRight
            {
              OFFSET 3.803794 -12.785117 -1.706671
              CHANNELS 3 Zrotation Xrotation Yrotation
              JOINT HandTipRight
              {
                OFFSET 2.019293 -0.571869 -2.368311
                CHANNELS 3 Zrotation Xrotation Yrotation
                End Site
                {
                  OFFSET 0 0 0
                }
              }
              JOINT ThumbRight
              {
                OFFSET 2.348971 -0.174275 -3.190188
                CHANNELS 3 Zrotation Xrotation Yrotation
                End Site
                {
                  OFFSET 0 0 0
                }
              }
            }
          }
        }
      }
    }
  }
  JOINT HipLeft
  {
    OFFSET -4.655269 -0.569915 -3.420692
    CHANNELS 3 Zrotation Xrotation Yrotation
    JOINT KneeLeft
    {
      OFFSET -7.662957 -4.584586 -36.481708
      CHANNELS 3 Zrotation Xrotation Yrotation
      JOINT AnkleLeft
      {
        OFFSET 4.097643 -34.132517 -0.656775
        CHANNELS 3 Zrotation Xrotation Yrotation
        JOINT FootLeft
        {
          OFFSET 1.035288 -2.898247 -8.920665
          CHANNELS 3 Zrotation Xrotation Yrotation
          End Site
          {
            OFFSET 0 0 0
          }
        }
      }
    }
  }
  JOINT HipRight
  {
    OFFSET 4.085337 1.966263 -1.495947
    CHANNELS 3 Zrotation Xrotation Yrotation
    JOINT KneeRight
    {
      OFFSET 24.935774 -10.751048 -15.021698
      CHANNELS 3 Zrotation Xrotation Yrotation
      JOINT AnkleRight
      {
        OFFSET -1.763772 -31.181301 -3.945818
        CHANNELS 3 Zrotation Xrotation Yrotation
        JOINT FootRight
        {
          OFFSET -0.685703 -2.771512 -9.729585
          CHANNELS 3 Zrotation Xrotation Yrotation
          End Site
          {
            OFFSET 0 0 0
          }
        }
      }
    }
  }
}
MOTION
Frames: 14
Frame Time: 0.033333
83.383625 48.090085 442.096944 -0.000000 0.000000 -12.418748 0.000000 0.000000 12.418748 -0.000000 0.000000 0.000000 -0.000000 0.000000 0.000000 0.000000 0.000000 0.000000 -0.000000 0.000000 0.000000 -0.000000 0.000000 0.000000 -0.000000 0.000000 0.000000 -0.000000 0.000000 0.000000 0.000000 0.000000 0.000000 0.000000 0.000000 0.000000 -0.000000 0.000000 0.000000 -0.000000 0.000000 0.000000 -0.000000 0.000000 0.000000 -0.000000 0.000000 0.000000 0.000000 0.000000 0.000000 0.000000 0.000000 0.000000 0.000000 0.000000 12.418748 -0.000000 0.000000 0.000000 -0.000000 0.000000 0.000000 0.000000 0.000000 0.000000 0.000000 0.000000 12.418748 -0.000000 0.000000 0.000000 -0.000000 0.000000 0.000000 0.000000 0.000000 0.000000
83.855018 47.681443 441.832795 0.560566 0.436040 -10.180945 -0.474687 -0.528240 10.176624 1.058249 -0.222614 0.045773 -5.847544 8.555072 10.122059 0.000000 0.000000 0.000000 -1.058079 0.223421 -0.041654 4.652245 0.561560 3.368017 -7.753559 3.634139 -2.618625 -1.069361 -12.431403 1.318043 0.000000 0.000000 0.000000 0.000000 0.000000 0.000000 -3.398342 7.705630 2.713361 8.692111 -11.208467 -5.409716 -2.268096 -0.682520 2.383574 -5.646392 1.729166 -0.545587 0.000000 0.000000 0.000000 0.000000 0.000000 0.000000 -0.659013 -0.342906 10.985130 0.145625 -0.217062 -0.809632 -0.369773 0.677185 1.359015 0.000000 0.000000 0.000000 -0.474687 -0.528240 10.176624 -0.000000 0.000000 0.000000 -0.837440 -3.347236 4.161547 0.000000 0.000000 0.000000
84.220819 47.357569 441.633844 0.975608 0.742538 -8.016938 0.431108 -0.709019 8.031431 0.606069 -0.428316 0.077659 -14.882578 18.018376 24.077755 0.000000 0.000000 0.000000 -1.909102 0.450570 -0.072650 8.700757 1.244966 6.513156 -18.072767 12.434165 -3.464924 -2.782071 -35.647503 0.530111 0.000000 0.000000 0.000000 0.000000 0.000000 0.000000 -9.662077 21.296036 8.833391 22.403423 -32.405476 -8.765832 -4.957659 -1.844023 6.189549 -13.514123 6.320640 1.603314 0.000000 0.000000 0.000000 0.000000 0.000000 0.000000 -1.149215 -0.589440 9.377819 -0.144270 -1.214899 -1.482936 -0.350549 2.282974 2.694039 0.000000 0.000000 0.000000 -0.061106 -0.763880 6.891642 -1.411081 -0.567913 1.229243 -0.737071 -5.450174 7.366359 0.000000 0.000000 0.000000
84.481026 47.118461 441.500089 1.249426 0.923023 -6.135896 0.576554 -0.967897 6.158986 0.849473 -0.577235 0.108737 -27.098273 25.808501 40.997453 0.000000 0.000000 0.000000 -3.101636 -0.127860 0.095479 12.470337 2.674434 8.939736 -41.114280 34.753691 6.060984 -35.586270 -76.102940 -41.929294 0.000000 0.000000 0.000000 0.000000 0.000000 0.000000 -27.274459 43.546123 26.990059 70.222006 -66.026322 20.039678 -6.965674 -3.801024 12.518645 -26.719529 15.015034 9.276786 0.000000 0.000000 0.000000 0.000000 0.000000 0.000000 -1.461820 -0.768521 7.816033 -0.235499 -1.612833 -1.861208 -0.542528 3.421448 3.839108 0.000000 0.000000 0.000000 -0.059319 -0.915247 4.684619 -1.944304 -0.793814 1.593929 -0.751937 -6.967287 9.532360 0.000000 0.000000 0.000000
84.635640 46.964121 441.431532 1.384801 0.979688 -4.751722 0.701502 -1.154570 4.783282 1.057694 -0.686368 0.132885 -39.949720 30.119809 57.586800 0.000000 0.000000 0.000000 -3.849222 -0.156431 0.158490 15.021799 3.440842 11.103301 -115.574172 51.226614 66.103969 -124.092159 -37.808135 -165.356358 0.000000 0.000000 0.000000 0.000000 0.000000 0.000000 -75.797419 57.598123 76.519887 171.908435 -39.055745 102.273198 -4.228325 -5.856532 21.437177 -51.232034 26.135647 29.046767 0.000000 0.000000 0.000000 0.000000 0.000000 0.000000 -1.588225 -0.909201 6.520687 -0.328319 -1.874213 -1.999853 -0.744360 4.551858 4.846455 0.000000 0.000000 0.000000 -0.014165 -0.918860 3.135989 -2.362782 -0.972788 1.789026 -0.651397 -7.452311 10.455769 0.000000 0.000000 0.000000
84.684661 46.894547 441.428171 1.383023 0.913366 -4.027910 0.823079 -1.263003 4.066958 1.233408 -0.757486 0.149311 -50.758737 31.734263 71.000895 0.000000 0.000000 0.000000 -4.461982 -0.163629 0.232998 16.619225 3.957658 12.786009 -151.229995 37.445356 94.871715 -107.882077 -10.414558 -178.073253 0.000000 0.000000 0.000000 0.000000 0.000000 0.000000 -111.751172 50.015714 113.422321 -166.558001 6.086125 101.568940 3.311709 -4.874701 28.650196 -82.444663 29.514791 58.747218 0.000000 0.000000 0.000000 0.000000 0.000000 0.000000 -1.521340 -1.032117 5.659739 -0.417275 -2.000885 -1.901059 -0.955191 5.669703 5.716111 0.000000 0.000000 0.000000 0.085139 -0.776132 2.410058 -2.666551 -1.100707 1.813850 -0.475176 -6.860100 10.082484 0.000000 0.000000 0.000000
84.209474 47.147088 441.652276 0.461608 0.386817 -2.528881 1.314584 -1.063912 2.568157 1.450832 -0.695940 0.142133 -61.831967 33.097383 84.118341 0.000000 0.000000 0.000000 -5.121880 -0.228275 0.405829 15.516304 3.310154 15.092365 -144.758681 39.180853 104.093637 -92.582499 0.155762 -150.960575 0.000000 0.000000 0.000000 0.000000 0.000000 0.000000 -125.798364 37.907011 127.180477 -131.695440 40.309137 81.324366 7.513667 4.614532 27.318006 -107.446022 24.560556 87.185451 0.000000 0.000000 0.000000 0.000000 0.000000 0.000000 -0.243440 -1.327550 2.829189 -0.329225 -1.688381 -0.611844 -1.903741 8.515834 7.675542 0.000000 0.000000 0.000000 0.922526 -0.211682 0.971684 -2.745126 -1.092483 1.771357 0.010263 -3.039201 6.302717 0.000000 0.000000 0.000000
84.002168 47.221531 441.783200 0.136160 0.091050 -3.659524 1.406090 -0.943910 3.693449 1.544187 -0.715741 0.138580 -71.494539 35.345115 93.867829 0.000000 0.000000 0.000000 -5.033289 -0.193923 0.451028 11.181196 1.572163 16.992720 -143.296703 42.787034 96.166006 -107.198745 -11.975011 -169.507986 0.000000 0.000000 0.000000 0.000000 0.000000 0.000000 -129.195262 31.280418 129.094066 -90.256711 44.003810 63.033260 9.339421 13.023493 14.168154 -116.939232 22.421359 102.380796 0.000000 0.000000 0.000000 0.000000 0.000000 0.000000 0.258900 -1.360739 3.330459 -0.156516 -1.852395 -0.041166 -2.745941 11.638065 9.468565 0.000000 0.000000 0.000000 1.255954 0.310161 2.469275 -2.753984 -1.050870 1.377610 1.006362 2.013429 0.705973 0.000000 0.000000 0.000000
83.953508 47.357756 441.874652 0.234118 -0.195949 -6.074672 1.263585 -0.930048 6.108237 1.653766 -0.768384 0.142831 -74.807840 35.450563 97.511726 0.000000 0.000000 0.000000 -5.170865 0.063842 0.494417 10.866792 1.473240 17.140864 -122.172704 46.908032 125.104694 -117.153166 16.515624 -151.478812 0.000000 0.000000 0.000000 0.000000 0.000000 0.000000 -130.925747 31.228953 132.796972 -70.108854 43.706894 62.293071 5.746263 10.326231 23.194516 -123.836238 38.072048 129.883110 0.000000 0.000000 0.000000 0.000000 0.000000 0.000000 0.353148 -1.436945 5.321572 -0.479349 -1.537260 0.384830 -2.031795 9.492340 7.868345 0.000000 0.000000 0.000000 0.935711 0.788328 5.474482 -2.645595 -0.836952 0.765203 1.364028 2.617897 -0.563385 0.000000 0.000000 0.000000
84.085188 47.448752 442.016303 0.643966 -0.554356 -7.938420 0.960066 -0.970240 7.979078 1.710198 -0.770223 0.147873 -72.593087 34.643820 95.800163 0.000000 0.000000 0.000000 -5.586603 0.300945 0.572471 12.591502 2.335542 15.797206 -112.641667 53.965499 106.122462 -119.806018 -12.740053 -152.622594 0.000000 0.000000 0.000000 0.000000 0.000000 0.000000 -131.354604 37.388400 137.606048 -66.073749 48.407413 71.296448 5.185025 11.876135 18.536363 -128.589221 43.377020 141.420338 0.000000 0.000000 0.000000 0.000000 0.000000 0.000000 0.000152 -1.297801 7.230544 -0.775590 -1.214591 0.368849 -1.627419 9.233658 7.439125 0.000000 0.000000 0.000000 0.144105 1.208738 8.041423 -2.420767 -0.848397 0.064891 1.372927 1.856524 -0.253098 0.000000 0.000000 0.000000
84.464576 47.441245 442.063162 1.409729 -0.827567 -10.044296 0.564238 -1.162246 10.106625 1.708779 -0.875276 0.165291 -64.136841 24.605611 93.106397 0.000000 0.000000 0.000000 -6.039721 0.754919 0.626801 16.217912 3.987530 12.677111 -69.405595 28.572346 -47.219656 75.492889 -27.085075 51.285504 0.000000 0.000000 0.000000 0.000000 0.000000 0.000000 -133.477760 38.549321 141.862261 -68.703665 51.370342 74.745865 4.909578 12.387180 16.941634 -127.554281 45.846208 140.311952 0.000000 0.000000 0.000000 0.000000 0.000000 0.000000 -0.870475 -0.998726 9.797542 -1.042606 -1.289591 -0.066249 -1.143885 9.018800 7.024366 0.000000 0.000000 0.000000 -1.057306 1.468117 11.020198 -2.194267 -1.059688 -0.783286 2.023261 3.627632 -2.443550 0.000000 0.000000 0.000000
84.934910 47.163201 442.089631 2.290829 -0.935044 -11.182023 0.170818 -1.492210 11.274142 1.663449 -0.933878 0.183203 -64.202056 23.963722 93.586212 0.000000 0.000000 0.000000 -6.548710 1.116912 0.677857 17.372867 4.411265 12.223801 -70.065913 14.580621 -64.415171 72.050082 -9.799684 48.320794 0.000000 0.000000 0.000000 0.000000 0.000000 0.000000 -134.410843 38.601709 143.047528 -67.579503 51.982813 76.862812 4.794973 12.729939 15.629966 -128.454088 47.447746 142.266882 0.000000 0.000000 0.000000 0.000000 0.000000 0.000000 -2.175336 -0.287770 11.768757 -0.957219 -2.173641 -0.910153 -0.894368 8.961686 6.773292 0.000000 0.000000 0.000000 -1.986141 1.682731 12.778904 -2.202662 -1.507666 -1.402094 2.795772 7.169618 -5.398112 0.000000 0.000000 0.000000
85.273987 46.972456 442.091716 2.909743 -0.986971 -12.588085 0.097255 -1.710022 12.706007 1.645446 -0.916252 0.199230 -72.280614 30.850621 97.495754 0.000000 0.000000 0.000000 -7.087280 1.285386 0.712442 17.958248 4.577044 12.821980 -67.928637 17.505706 -58.144306 81.450457 -15.141993 46.086252 0.000000 0.000000 0.000000 0.000000 0.000000 0.000000 -134.711816 37.837229 142.426298 -71.043459 51.390156 81.137538 4.666972 12.815023 14.915206 -126.718367 49.186679 139.296766 0.000000 0.000000 0.000000 0.000000 0.000000 0.000000 -3.119811 0.129936 13.782906 -0.844868 -2.835055 -1.530337 -0.791545 8.954699 6.642798 0.000000 0.000000 0.000000 -2.633711 1.820806 14.683976 -2.116039 -1.806867 -1.920375 2.242169 5.505344 -4.094401 0.000000 0.000000 0.000000
85.501539 46.859686 442.048926 3.295855 -0.918464 -13.748899 0.192040 -1.862614 13.883855 1.617193 -0.835790 0.208360 -87.646130 43.638477 105.049493 0.000000 0.000000 0.000000 -7.353098 1.212161 0.703432 16.530959 4.174486 13.255073 -65.631466 17.284152 -57.363804 75.044747 -16.097762 47.205750 0.000000 0.000000 0.000000 0.000000 0.000000 0.000000 -135.269489 37.798167 142.756832 -72.425100 51.610136 88.760700 4.453114 13.374391 12.400903 -126.435858 53.657158 140.238621 0.000000 0.000000 0.000000 0.000000 0.000000 0.000000 -3.718132 0.254282 15.421619 -0.656114 -3.271936 -2.023405 -0.794734 8.988232 6.442416 0.000000 0.000000 0.000000 -3.000245 1.771514 16.084890 -2.168618 -1.945999 -2.171752 1.364566 4.078304 -1.207005 0.000000 0.000000 0.000000
